<?xml version="1.0" encoding="UTF-8" standalone="no"?>
<svg viewBox="0 0 220 220" width="220" height="220" version="1.1" xmlns="http://www.w3.org/2000/svg">
  <g transform="translate(2200.5613,-1408.4441)" />
  <g transform="translate(685.62879,-4214.697)">
    <path
      style="fill:#fff700;fill-opacity:1;stroke:none;stroke-width:1.5324904;stroke-miterlimit:40;stroke-dasharray:none;stroke-opacity:1"
      d="m -643.91761,4433.7445 c 0.027,-0.243 0.096,-1.1468 0.1599,-2.0114 0.9228,-12.42 2.32149,-25.8878 3.94676,-38.0059 7.57995,-56.5151 22.73191,-104.5129 46.95063,-148.728 5.01424,-9.1544 10.44682,-18.1808 16.36025,-27.1826 0.616,-0.937 1.15461,-1.7048 1.19706,-1.7048 0.2161,0 6.45507,9.4379 9.62335,14.5586 8.29743,13.4102 15.79997,27.842 22.02887,42.373 9.61576,22.4329 17.00879,46.2904 23.44779,75.667 2.87832,13.1317 4.97599,24.0585 10.06899,52.4495 0.8202,4.5726 1.75969,9.7897 2.08755,11.5933 0.6398,3.5186 0.6337,3.4208 0.2023,3.4239 -0.1061,9e-4 -0.1863,-0.06 -0.2206,-0.17 -0.031,-0.1 -0.4076,-1.1383 -0.8413,-2.3178 -5.12189,-13.9417 -10.26505,-25.4249 -15.49507,-34.5963 -4.41296,-7.7384 -9.35999,-14.2519 -13.84898,-18.2341 -3.82741,-3.3955 -7.8343,-5.6414 -11.60863,-6.5065 -1.60764,-0.37 -2.24682,-0.429 -4.4059,-0.429 -1.61461,2.3e-3 -2.23702,0.02 -2.8351,0.14 -3.58167,0.625 -6.44786,1.7737 -10.22937,4.0976 -14.09485,8.6622 -31.3507,24.0181 -49.65743,44.1896 -8.29332,9.1379 -18.34369,21.0893 -25.85603,30.7464 -0.9675,1.2441 -1.14412,1.3505 -1.07531,0.649 z m 65.44018,-114.7626 c 2.09805,-3.5263 3.65345,-6.0634 3.726,-6.0769 0.092,-5.6e-3 1.34883,2.0653 4.90376,8.1323 2.62867,4.4858 4.78297,8.151 4.78734,8.1448 4.36e-3,-5.2e-3 -0.4,-3.666 -0.8991,-8.1331 -0.4986,-4.4673 -0.8988,-8.2188 -0.8891,-8.3368 0.017,-0.201 0.4199,-0.428 7.1992,-4.0272 3.94968,-2.0966 7.19612,-3.8274 7.2142,-3.8464 0.02,-5.5e-3 -3.5174,-1.2403 -7.85669,-2.7161 -4.33936,-1.4749 -7.92843,-2.705 -7.97586,-2.7334 -0.051,-0.02 -1.35296,-10.4077 -3.35333,-26.7607 -1.79691,-14.69 -3.28175,-26.7234 -3.29953,-26.7412 -0.017,-5.6e-3 -1.52756,11.9039 -3.35508,26.4924 -1.82749,14.5889 -3.34511,26.6603 -3.37255,26.8255 l -0.051,0.3 -8.00098,2.6498 -8.00096,2.6497 7.36998,3.7137 c 5.76284,2.9043 7.36996,3.7449 7.36996,3.8553 0,0.139 -1.87269,16.5599 -1.95898,17.1797 -0.044,0.337 -0.1541,0.511 6.44169,-10.5721 z" />
  </g>
</svg>
